:FULLY-SPECIFIED
:FORCE-ALL-JOINTS-BE-3DOF
:DEGREES
917
root 2.75166 16.2204 32.4365 2.34542 10.8058 362.323
lfemur -13.4542 -1.78694 1.302
ltibia 27.3587 0 0
lfoot 2.50882 -43.9919 0
ltoes 19.2679 0 0
rfemur -16.9428 -2.11991 -8.31526
rtibia 39.0808 0 0
rfoot 10.615 -13.6718 0
rtoes -21.7745 0 0
lowerback -0.62446 0.168514 -2.82118
upperback -0.780749 0.231941 -4.76583
thorax -0.443636 0.121398 -3.32119
lowerneck -7.12581 -5.29721 -1.40335
upperneck 4.21462 -7.32039 5.99143
head 2.91665 -3.46108 1.83713
lclavicle 1.26948e-14 -8.2164e-15 0
lhumerus -51.35 -35.7988 107.964
lradius 59.027 0 0
lwrist 13.4484 0 0
lhand 37.8469 21.0956 0
lfingers 7.12502 0 0
lthumb 60.5425 33.9432 0
rclavicle 1.26948e-14 -8.2164e-15 0
rhumerus -60.5294 33.8265 -104.607
rradius 117.973 0 0
rwrist 3.30006 0 0
rhand 0.92438 -10.7876 0
rfingers 7.12502 0 0
rthumb 26.4623 -758.823 0
918
root 2.66955 16.1876 32.4837 2.71473 10.0596 362.464
lfemur -12.0577 -4.0228 2.45602
ltibia 24.1732 0 0
lfoot 5.64973 -47.0223 0
ltoes 23.8555 0 0
rfemur -17.0569 -1.2747 -8.60228
rtibia 38.2377 0 0
rfoot 10.2942 -12.417 0
rtoes -29.4394 0 0
lowerback -1.06842 0.146815 -2.8171
upperback -0.902489 0.221691 -5.02236
thorax -0.318924 0.115264 -3.58818
lowerneck -7.1435 -5.014 -1.26357
upperneck 4.16555 -6.95677 6.07073
head 2.88559 -3.27612 1.85882
lclavicle 1.12747e-14 -1.36499e-14 0
lhumerus -51.4557 -35.9049 107.703
lradius 59.0724 0 0
lwrist 13.871 0 0
lhand 39.0253 22.3007 0
lfingers 7.12502 0 0
lthumb 61.5531 34.1114 0
rclavicle 1.12747e-14 -1.36499e-14 0
rhumerus -61.7171 34.871 -103.433
rradius 118.278 0 0
rwrist 4.21535 0 0
rhand 3.13558 -10.1391 0
rfingers 7.12502 0 0
rthumb 28.5815 -757.886 0
919
root 2.58744 16.1548 32.531 3.08405 9.31345 362.605
lfemur -10.6612 -6.25866 3.61003
ltibia 20.9876 0 0
lfoot 8.79063 -50.0527 0
ltoes 28.4432 0 0
rfemur -17.1709 -0.429495 -8.8893
rtibia 37.3945 0 0
rfoot 9.97349 -11.1622 0
rtoes -37.1043 0 0
lowerback -1.51237 0.125115 -2.81302
upperback -1.02423 0.21144 -5.27889
thorax -0.194212 0.109131 -3.85516
lowerneck -7.16119 -4.73079 -1.1238
upperneck 4.11648 -6.59315 6.15003
head 2.85453 -3.09116 1.8805
lclavicle 9.85459e-15 -1.90833e-14 0
lhumerus -51.5615 -36.011 107.442
lradius 59.1177 0 0
lwrist 14.2935 0 0
lhand 40.2037 23.5058 0
lfingers 7.12502 0 0
lthumb 62.5638 34.2796 0
rclavicle 9.85459e-15 -1.90833e-14 0
rhumerus -62.9049 35.9155 -102.26
rradius 118.582 0 0
rwrist 5.13064 0 0
rhand 5.34678 -9.49053 0
rfingers 7.12502 0 0
rthumb 30.7007 -756.949 0
920
root 2.51205 16.1089 32.5648 3.30261 8.40128 362.964
lfemur -9.06152 -6.26742 3.48189
ltibia 18.7441 0 0
lfoot 6.12126 -49.4277 0
ltoes 25.8904 0 0
rfemur -17.8276 -0.773052 -9.24062
rtibia 37.8251 0 0
rfoot 8.35855 -10.583 0
rtoes -38.6537 0 0
lowerback -1.79956 0.0249508 -2.7886
upperback -1.08867 0.0922563 -5.60203
thorax -0.108792 0.0476863 -4.21447
lowerneck -7.14068 -4.31484 -0.898053
upperneck 4.07661 -6.05174 6.102
head 2.8082 -2.82124 1.85141
lclavicle 7.90363e-15 -1.59028e-14 0
lhumerus -51.8888 -36.415 107.281
lradius 58.8983 0 0
lwrist 14.9368 0 0
lhand 40.8559 24.1749 0
lfingers 7.12502 0 0
lthumb 63.0877 34.1453 0
rclavicle 7.90363e-15 -1.59028e-14 0
rhumerus -61.7271 37.7597 -97.6474
rradius 117.936 0 0
rwrist 3.33273 0 0
rhand 8.25977 -9.65826 0
rfingers 7.12502 0 0
rthumb 33.4434 -756.307 0
921
root 2.43667 16.0631 32.5986 3.52118 7.48911 363.323
lfemur -7.46185 -6.27618 3.35375
ltibia 16.5007 0 0
lfoot 3.45189 -48.8026 0
ltoes 23.3377 0 0
rfemur -18.4843 -1.11661 -9.59193
rtibia 38.2557 0 0
rfoot 6.74361 -10.0038 0
rtoes -40.203 0 0
lowerback -2.08674 -0.0752133 -2.76418
upperback -1.15312 -0.0269273 -5.92518
thorax -0.023372 -0.0137583 -4.57377
lowerneck -7.12017 -3.89888 -0.672306
upperneck 4.03673 -5.51032 6.05397
head 2.76187 -2.55132 1.82231
lclavicle 5.95267e-15 -1.27222e-14 0
lhumerus -52.2161 -36.8191 107.119
lradius 58.679 0 0
lwrist 15.5801 0 0
lhand 41.5081 24.844 0
lfingers 7.12502 0 0
lthumb 63.6116 34.0111 0
rclavicle 5.95267e-15 -1.27222e-14 0
rhumerus -60.5493 39.6039 -93.0347
rradius 117.291 0 0
rwrist 1.53482 0 0
rhand 11.1728 -9.82599 0
rfingers 7.12502 0 0
rthumb 36.1861 -755.664 0
922
root 2.36129 16.0172 32.6324 3.73975 6.57693 363.682
lfemur -5.86217 -6.28494 3.22562
ltibia 14.2572 0 0
lfoot 0.782515 -48.1775 0
ltoes 20.7849 0 0
rfemur -19.141 -1.46017 -9.94325
rtibia 38.6863 0 0
rfoot 5.12866 -9.4246 0
rtoes -41.7524 0 0
lowerback -2.37392 -0.175378 -2.73976
upperback -1.21756 -0.146111 -6.24832
thorax 0.062048 -0.075203 -4.93308
lowerneck -7.09966 -3.48293 -0.446559
upperneck 3.99686 -4.96891 6.00594
head 2.71555 -2.2814 1.79322
lclavicle 4.00171e-15 -9.54165e-15 0
lhumerus -52.5434 -37.2231 106.958
lradius 58.4596 0 0
lwrist 16.2234 0 0
lhand 42.1603 25.513 0
lfingers 7.12502 0 0
lthumb 64.1355 33.8768 0
rclavicle 4.00171e-15 -9.54165e-15 0
rhumerus -59.3715 41.4481 -88.4221
rradius 116.645 0 0
rwrist -0.26309 0 0
rhand 14.0857 -9.99371 0
rfingers 7.12502 0 0
rthumb 38.9288 -755.022 0
923
root 2.2859 15.9713 32.6661 3.95831 5.66476 364.041
lfemur -4.2625 -6.2937 3.09748
ltibia 12.0137 0 0
lfoot -1.88686 -47.5525 0
ltoes 18.2321 0 0
rfemur -19.7978 -1.80372 -10.2946
rtibia 39.1169 0 0
rfoot 3.51372 -8.84539 0
rtoes -43.3018 0 0
lowerback -2.66111 -0.275542 -2.71534
upperback -1.282 -0.265295 -6.57146
thorax 0.147468 -0.136648 -5.29239
lowerneck -7.07916 -3.06698 -0.220812
upperneck 3.95699 -4.4275 5.95791
head 2.66922 -2.01149 1.76413
lclavicle 2.05074e-15 -6.3611e-15 0
lhumerus -52.8708 -37.6271 106.797
lradius 58.2402 0 0
lwrist 16.8667 0 0
lhand 42.8126 26.1821 0
lfingers 7.12502 0 0
lthumb 64.6594 33.7425 0
rclavicle 2.05074e-15 -6.3611e-15 0
rhumerus -58.1937 43.2923 -83.8095
rradius 115.999 0 0
rwrist -2.061 0 0
rhand 16.9987 -10.1614 0
rfingers 7.12502 0 0
rthumb 41.6715 -754.379 0
924
root 2.21052 15.9255 32.6999 4.17687 4.75259 364.4
lfemur -2.66282 -6.30246 2.96934
ltibia 9.77027 0 0
lfoot -4.55623 -46.9274 0
ltoes 15.6794 0 0
rfemur -20.4545 -2.14728 -10.6459
rtibia 39.5475 0 0
rfoot 1.89878 -8.26619 0
rtoes -44.8511 0 0
lowerback -2.94829 -0.375706 -2.69092
upperback -1.34645 -0.384478 -6.89461
thorax 0.232888 -0.198092 -5.65169
lowerneck -7.05865 -2.65102 0.004935
upperneck 3.91711 -3.88608 5.90988
head 2.62289 -1.74157 1.73503
lclavicle 9.97817e-17 -3.18055e-15 0
lhumerus -53.1981 -38.0312 106.635
lradius 58.0209 0 0
lwrist 17.51 0 0
lhand 43.4648 26.8512 0
lfingers 7.12502 0 0
lthumb 65.1833 33.6083 0
rclavicle 9.97817e-17 -3.18055e-15 0
rhumerus -57.0159 45.1365 -79.1968
rradius 115.354 0 0
rwrist -3.85891 0 0
rhand 19.9117 -10.3292 0
rfingers 7.12502 0 0
rthumb 44.4142 -753.736 0
925
root 2.13513 15.8796 32.7337 4.39544 3.84042 364.759
lfemur -1.06315 -6.31122 2.8412
ltibia 7.52681 0 0
lfoot -7.2256 -46.3024 0
ltoes 13.1266 0 0
rfemur -21.1112 -2.49084 -10.9972
rtibia 39.9781 0 0
rfoot 0.283837 -7.68699 0
rtoes -46.4005 0 0
lowerback -3.23548 -0.47587 -2.6665
upperback -1.41089 -0.503662 -7.21775
thorax 0.318308 -0.259537 -6.011
lowerneck -7.03814 -2.23507 0.230682
upperneck 3.87724 -3.34467 5.86185
head 2.57656 -1.47165 1.70594
lclavicle -1.85118e-15 0 0
lhumerus -53.5254 -38.4352 106.474
lradius 57.8015 0 0
lwrist 18.1533 0 0
lhand 44.117 27.5203 0
lfingers 7.12502 0 0
lthumb 65.7072 33.474 0
rclavicle -1.85118e-15 0 0
rhumerus -55.8381 46.9807 -74.5842
rradius 114.708 0 0
rwrist -5.65682 0 0
rhand 22.8247 -10.4969 0
rfingers 7.12502 0 0
rthumb 47.1569 -753.094 0
926
root 2.0739 15.838 32.7435 4.49481 3.02391 364.987
lfemur -0.13908 -5.53898 2.51984
ltibia 6.95378 0 0
lfoot -10.6288 -43.3752 0
ltoes 7.4419 0 0
rfemur -22.0827 -3.10741 -11.0597
rtibia 40.8606 0 0
rfoot -1.0754 -7.10785 0
rtoes -46.2775 0 0
lowerback -3.28258 -0.542619 -2.57242
upperback -1.40708 -0.59388 -7.37709
thorax 0.335799 -0.306782 -6.24109
lowerneck -7.08179 -1.88501 0.531283
upperneck 3.7617 -2.88971 5.67347
head 2.52724 -1.24879 1.61074
lclavicle -3.08528e-16 5.83102e-15 0
lhumerus -54.0501 -38.9847 106.695
lradius 57.6937 0 0
lwrist 19.3616 0 0
lhand 43.8421 27.773 0
lfingers 7.12502 0 0
lthumb 65.4904 34.0902 0
rclavicle -3.08528e-16 5.83102e-15 0
rhumerus -51.1408 47.3057 -67.4224
rradius 111.129 0 0
rwrist -7.06673 0 0
rhand 22.7275 -10.7245 0
rfingers 7.12502 0 0
rthumb 47.067 -753.361 0
927
root 2.01268 15.7963 32.7533 4.59418 2.2074 365.214
lfemur 0.78499 -4.76674 2.19849
ltibia 6.38076 0 0
lfoot -14.0319 -40.448 0
ltoes 1.7572 0 0
rfemur -23.0543 -3.72398 -11.1223
rtibia 41.7432 0 0
rfoot -2.43465 -6.52872 0
rtoes -46.1544 0 0
lowerback -3.32968 -0.609368 -2.47835
upperback -1.40328 -0.684098 -7.53643
thorax 0.35329 -0.354028 -6.47118
lowerneck -7.12543 -1.53495 0.831885
upperneck 3.64617 -2.43475 5.48509
head 2.47791 -1.02592 1.51554
lclavicle 1.23412e-15 1.1662e-14 0
lhumerus -54.5748 -39.5342 106.915
lradius 57.5859 0 0
lwrist 20.5698 0 0
lhand 43.5672 28.0256 0
lfingers 7.12502 0 0
lthumb 65.2736 34.7064 0
rclavicle 1.23412e-15 1.1662e-14 0
rhumerus -46.4435 47.6306 -60.2606
rradius 107.549 0 0
rwrist -8.47665 0 0
rhand 22.6303 -10.9521 0
rfingers 7.12502 0 0
rthumb 46.977 -753.628 0
928
root 1.95145 15.7546 32.7631 4.69355 1.39089 365.442
lfemur 1.70906 -3.9945 1.87713
ltibia 5.80774 0 0
lfoot -17.4351 -37.5208 0
ltoes -3.9275 0 0
rfemur -24.0258 -4.34055 -11.1848
rtibia 42.6257 0 0
rfoot -3.79389 -5.94958 0
rtoes -46.0314 0 0
lowerback -3.37678 -0.676117 -2.38427
upperback -1.39947 -0.774316 -7.69577
thorax 0.370781 -0.401273 -6.70127
lowerneck -7.16908 -1.1849 1.13249
upperneck 3.53063 -1.97979 5.29671
head 2.42859 -0.803058 1.42034
lclavicle 2.77678e-15 1.7493e-14 0
lhumerus -55.0995 -40.0837 107.136
lradius 57.478 0 0
lwrist 21.7781 0 0
lhand 43.2923 28.2783 0
lfingers 7.12502 0 0
lthumb 65.0568 35.3226 0
rclavicle 2.77678e-15 1.7493e-14 0
rhumerus -41.7462 47.9556 -53.0987
rradius 103.97 0 0
rwrist -9.88656 0 0
rhand 22.5331 -11.1798 0
rfingers 7.12502 0 0
rthumb 46.8871 -753.895 0
929
root 1.89023 15.713 32.7729 4.79293 0.57438 365.67
lfemur 2.63313 -3.22226 1.55578
ltibia 5.23471 0 0
lfoot -20.8382 -34.5937 0
ltoes -9.6122 0 0
rfemur -24.9974 -4.95712 -11.2473
rtibia 43.5082 0 0
rfoot -5.15313 -5.37045 0
rtoes -45.9084 0 0
lowerback -3.42388 -0.742867 -2.29019
upperback -1.39566 -0.864534 -7.85511
thorax 0.388272 -0.448518 -6.93137
lowerneck -7.21273 -0.834839 1.43309
upperneck 3.41509 -1.52483 5.10833
head 2.37927 -0.580195 1.32513
lclavicle 4.31943e-15 2.33241e-14 0
lhumerus -55.6243 -40.6331 107.357
lradius 57.3702 0 0
lwrist 22.9864 0 0
lhand 43.0174 28.531 0
lfingers 7.12502 0 0
lthumb 64.84 35.9389 0
rclavicle 4.31943e-15 2.33241e-14 0
rhumerus -37.0488 48.2806 -45.9369
rradius 100.39 0 0
rwrist -11.2965 0 0
rhand 22.436 -11.4074 0
rfingers 7.12502 0 0
rthumb 46.7972 -754.162 0
930
root 1.829 15.6713 32.7827 4.8923 -0.24213 365.897
lfemur 3.5572 -2.45002 1.23442
ltibia 4.66169 0 0
lfoot -24.2414 -31.6665 0
ltoes -15.2969 0 0
rfemur -25.969 -5.57369 -11.3099
rtibia 44.3908 0 0
rfoot -6.51237 -4.79131 0
rtoes -45.7853 0 0
lowerback -3.47098 -0.809616 -2.19612
upperback -1.39186 -0.954752 -8.01445
thorax 0.405763 -0.495764 -7.16146
lowerneck -7.25637 -0.484782 1.73369
upperneck 3.29956 -1.06987 4.91995
head 2.32994 -0.357331 1.22993
lclavicle 5.86208e-15 2.91551e-14 0
lhumerus -56.149 -41.1826 107.577
lradius 57.2624 0 0
lwrist 24.1946 0 0
lhand 42.7425 28.7836 0
lfingers 7.12502 0 0
lthumb 64.6232 36.5551 0
rclavicle 5.86208e-15 2.91551e-14 0
rhumerus -32.3515 48.6055 -38.7751
rradius 96.8107 0 0
rwrist -12.7064 0 0
rhand 22.3388 -11.635 0
rfingers 7.12502 0 0
rthumb 46.7072 -754.429 0
